<svg xmlns="http://www.w3.org/2000/svg" height="48" viewBox="0 -960 960 960" width="48" fill="#3F61A6"><path d="M71-89v-84q45-3 66.5-20.5T205-211q46 0 77.269 21.5Q313.538-168 346.5-168q33.962 0 60.516-21.5Q433.571-211 480-211q46.429 0 77.484 21.5Q588.538-168 622-168t60.731-21.5Q710-211 756-211q46 0 67 17.5t66 20.5v84q-39.927-3-70.464-22Q788-130 755.5-130t-62.357 21Q663.286-88 622-88q-42.429 0-75.714-21Q513-130 480-130t-63.786 21Q385.429-88 343.5-88t-73.714-21Q238-130 205.5-130t-63.536 19Q110.927-92 71-89Zm0-198v-80q45-3 66.5-20.5T205-405q46 0 74.776 19 28.775 19 63.21 19 33.476 0 62.03-19 28.555-19 74.984-19 46.429 0 75.984 19 29.554 19 61.516 19 33.962 0 63.231-19T756-405q46 0 67 17.5t66 20.5v80q-39.927-4-70.464-23Q788-329 755.5-329t-63.248 21q-30.749 21-69.005 21-41.247 0-75.981-21-34.734-21-68.185-21Q447-329 417-308t-70 21q-40 0-74.5-21t-67-21q-32.5 0-63.536 19Q110.927-291 71-287Zm201-227 136-136-46.74-47.192q-29.335-28.284-64.297-40.546Q262-750 202-750v-98q74.665 1 132.832 23.5Q393-802 435-759l254 253.041Q676-493 655-487t-36.576 6q-39.657 0-69.041-21Q520-523 480-523t-69.076 21q-29.076 21-68.348 21-19.01 0-39.293-9.5Q283-500 272-514Zm405.479-344q44.563 0 74.542 30.021T782-754.268q0 43.908-29.937 74.588-29.936 30.68-74.5 30.68Q633-649 602.5-679.389T572-753.652q0-43.658 30.638-74.003Q633.275-858 677.479-858Z"/></svg>